<!DOCTYPE svg PUBLIC "-//W3C//DTD SVG 1.1//EN" "http://www.w3.org/Graphics/SVG/1.1/DTD/svg11.dtd">
<!-- Uploaded to: SVG Repo, www.svgrepo.com, Transformed by: SVG Repo Mixer Tools -->
<svg fill="#a1a1a1" height="800px" width="800px" version="1.1" id="Layer_1" xmlns="http://www.w3.org/2000/svg" xmlns:xlink="http://www.w3.org/1999/xlink" viewBox="0 0 512 512" xml:space="preserve">
<g id="SVGRepo_bgCarrier" stroke-width="0"/>
<g id="SVGRepo_tracerCarrier" stroke-linecap="round" stroke-linejoin="round"/>
<g id="SVGRepo_iconCarrier"> <g> <g> <path d="M75.582,399.129l7.16,95.498c0.735,9.798,8.9,17.373,18.725,17.373h309.068c9.826,0,17.99-7.575,18.725-17.373 l7.16-95.498H75.582z"/> </g> </g> <g> <g> <path d="M459.87,6.005C456.317,2.176,451.329,0,446.105,0H65.895C60.67,0,55.683,2.176,52.13,6.006 c-3.553,3.83-5.35,8.966-4.96,14.176l22.879,305.147h371.904l3.172-42.314L249.453,87.628h-7.054 c-10.37,0-18.777-8.407-18.777-18.777s8.407-18.777,18.777-18.777h36.304c10.37,0,18.777,8.407,18.777,18.777 c0,8.497-5.647,15.666-13.389,17.983l163.502,163.264L464.83,20.181C465.22,14.971,463.424,9.835,459.87,6.005z"/> </g> </g> <g> <g> <polygon points="71.925,350.366 73.704,374.093 438.296,374.093 440.075,350.366 "/> </g> </g> </g>
</svg>